
        <svg xmlns="http://www.w3.org/2000/svg" xmlns:xlink="http://www.w3.org/1999/xlink" version="1.1" width="3176.4705882352937" 
        height="1650.145541528166" viewBox="0 0 3176.4705882352937 1650.145541528166">
			<rect fill="#6730ec" width="3176.4705882352937" height="1650.145541528166"/>
			<g transform="scale(8.823529411764707) translate(10, 10)">
				<defs id="SvgjsDefs1952"></defs><g id="SvgjsG1953" featureKey="xtWca3-0" transform="matrix(5.894308851686976,0,0,5.894308851686976,120.64634004953291,-15.886177033739521)" fill="#ffd502"><path d="M16.78 5.24 l-0.18 0.18 l-3.62 14.4 l0 0 l0.2 0.18 l-3.58 0 l0.18 -0.18 l-1.18 -4.44 l-1.12 4.44 l0 0 l0.18 0.18 l-3.64 0 l0.2 -0.18 l-3.98 -14.4 l0 0 l-0.18 -0.18 l4.02 0 l-0.2 0.18 l0 0 l2.12 8.8 l0.98 -5.12 l-0.9 -3.68 l0 0 l-0.18 -0.18 l3.6 0 l-0.16 0.18 l0 0 l1.04 4.28 l0.98 4.52 l0.94 -4.58 l1.06 -4.22 l0 0 l-0.2 -0.18 l3.62 0 z"></path></g><g id="SvgjsG1954" featureKey="dFhhLb-0" transform="matrix(2.141866924228789,0,0,2.141866924228789,-2.510420320395117,124.17784484483889)" fill="#f4cc02"><path d="M13.301 20 q0.37109375 0 0.703125 -0.21484375 q0.517578125 -0.390625 0.517578125 -1.025390625 q0 -0.361328125 -0.224609375 -0.693359375 l-5.4395 -7.7148 q-0.41015625 -0.52734375 -1.005859375 -0.52734375 q-0.60546875 0 -1.015625 0.52734375 l-3.2031 4.5508 l0 -7.6855 q0 -0.498046875 -0.361328125 -0.8642578125 t-0.86914 -0.36621 t-0.86914 0.36621 t-0.36133 0.86426 l0 11.563 q0 0.400390625 0.234375 0.72265625 q0.361328125 0.498046875 1.015625 0.498046875 q0.576171875 0 0.986328125 -0.517578125 l4.4434 -6.2988 l4.4336 6.2988 q0.4296875 0.517578125 1.015625 0.517578125 z M18.095659375 20 q0.5078125 0 0.869140625 -0.3564453125 t0.36133 -0.86426 l0 -11.553 q0 -0.5078125 -0.361328125 -0.869140625 t-0.86914 -0.36133 t-0.86914 0.36133 t-0.36133 0.86914 l0 11.553 q0 0.5078125 0.361328125 0.8642578125 t0.86914 0.35645 z M29.638646875 20 q0.5078125 0 0.869140625 -0.3564453125 t0.36133 -0.86426 q0 -0.517578125 -0.361328125 -0.8740234375 t-0.86914 -0.35645 l-3.7695 0 q-0.654296875 0 -1.09375 -0.3515625 q-0.7421875 -0.595703125 -0.7421875 -2.412109375 l0 -7.5586 q0 -0.5078125 -0.361328125 -0.869140625 t-0.86914 -0.36133 t-0.86914 0.36133 t-0.36133 0.86914 l0 7.5586 q0 2.1484375 0.91796875 3.515625 q1.201171875 1.69921875 3.37890625 1.69921875 l3.7695 0 z M41.083959375 20 q0.5078125 0 0.869140625 -0.3564453125 t0.36133 -0.86426 q0 -0.517578125 -0.361328125 -0.8740234375 t-0.86914 -0.35645 l-3.7695 0 q-0.654296875 0 -1.09375 -0.3515625 q-0.7421875 -0.595703125 -0.7421875 -2.412109375 l0 -7.5586 q0 -0.5078125 -0.361328125 -0.869140625 t-0.86914 -0.36133 t-0.86914 0.36133 t-0.36133 0.86914 l0 7.5586 q0 2.1484375 0.91796875 3.515625 q1.201171875 1.69921875 3.37890625 1.69921875 l3.7695 0 z M52.031271875 14.0527 q0.5078125 0 0.869140625 -0.3564453125 t0.36133 -0.86426 q0 -0.517578125 -0.361328125 -0.8740234375 t-0.86914 -0.35645 l-6.2402 0 q-0.5078125 0 -0.869140625 0.3564453125 t-0.36133 0.87402 q0 0.5078125 0.361328125 0.8642578125 t0.86914 0.35645 l6.2402 0 z M56.83589375 20 q0.5078125 0 0.869140625 -0.3564453125 t0.36133 -0.86426 l0 -11.553 q0 -0.5078125 -0.361328125 -0.869140625 t-0.86914 -0.36133 t-0.86914 0.36133 t-0.36133 0.86914 l0 11.553 q0 0.5078125 0.361328125 0.8642578125 t0.86914 0.35645 z M67.88088125 14.0527 q0.5078125 0 0.869140625 -0.3564453125 t0.36133 -0.86426 q0 -0.517578125 -0.361328125 -0.8740234375 t-0.86914 -0.35645 l-6.2402 0 q-0.5078125 0 -0.869140625 0.3564453125 t-0.36133 0.87402 q0 0.5078125 0.361328125 0.8642578125 t0.86914 0.35645 l6.2402 0 z M80.888203125 20 q-0.5859375 0 -1.005859375 -0.517578125 l-5.9668 -8.4082 l0 3.1543 q0 0.5078125 -0.361328125 0.869140625 t-0.86914 0.36133 t-0.86914 -0.36133 t-0.36133 -0.86914 l0 -7.0117 q0 -0.068359375 0.0048828125 -0.1171875 t0.014648 -0.087891 l0.0097656 -0.058594 q0.01953125 -0.087890625 0.048828125 -0.166015625 q0.009765625 -0.029296875 0.01953125 -0.0439453125 t0.014648 -0.029297 t0.014648 -0.03418 l0.019531 -0.039063 t0.019531 -0.03418 l0.019531 -0.029297 t0.019531 -0.043945 l0.10742 -0.13672 l0.0097656 -0.0097656 l0.019531 -0.019531 l0.024414 -0.024414 t0.053711 -0.043945 t0.087891 -0.068359 l0.019531 -0.019531 q0.0390625 -0.029296875 0.0830078125 -0.048828125 t0.083008 -0.039063 t0.073242 -0.03418 t0.063477 -0.024414 t0.063477 -0.019531 t0.078125 -0.019531 t0.078125 -0.014648 t0.073242 -0.0097656 t0.097656 -0.0048828 l0.22461 0.019531 l0.21484 0.058594 l0.25391 0.12695 l0.13672 0.10742 l0.0097656 0.0097656 l0.019531 0.019531 l0.024414 0.024414 t0.048828 0.053711 t0.058594 0.073242 t5.9912 8.4326 l0 -7.6953 q0 -0.5078125 0.361328125 -0.869140625 t0.86914 -0.36133 t0.86914 0.36133 t0.36133 0.86914 l0 11.553 q0 0.400390625 -0.234375 0.712890625 q-0.37109375 0.5078125 -0.99609375 0.5078125 z M72.685503125 20 q-0.5078125 0 -0.869140625 -0.3564453125 t-0.36133 -0.86426 q0 -0.517578125 0.361328125 -0.8740234375 t0.86914 -0.35645 t0.86914 0.35645 t0.36133 0.87402 q0 0.5078125 -0.361328125 0.8642578125 t-0.86914 0.35645 z M93.066415625 20 l-7.373 0 q-0.5078125 0 -0.869140625 -0.3564453125 t-0.36133 -0.86426 q0 -0.517578125 0.361328125 -0.8740234375 t0.86914 -0.35645 l7.373 0 q0.5078125 0 0.869140625 0.3564453125 t0.36133 0.87402 q0 0.5078125 -0.361328125 0.8642578125 t-0.86914 0.35645 z M93.066415625 8.447 l-7.373 0 q-0.5078125 0 -0.869140625 -0.3564453125 t-0.36133 -0.86426 t0.36133 -0.86914 t0.86914 -0.36133 l7.373 0 q0.5078125 0 0.869140625 0.361328125 t0.36133 0.86914 t-0.36133 0.86426 t-0.86914 0.35645 z M93.066415625 14.2285 l-7.373 0 q-0.5078125 0 -0.869140625 -0.361328125 t-0.36133 -0.86914 t0.36133 -0.86914 t0.86914 -0.36133 l7.373 0 q0.5078125 0 0.869140625 0.361328125 t0.36133 0.86914 t-0.36133 0.86914 t-0.86914 0.36133 z M104.95118125 20 l-7.373 0 q-0.5078125 0 -0.869140625 -0.3564453125 t-0.36133 -0.86426 q0 -0.517578125 0.361328125 -0.8740234375 t0.86914 -0.35645 l7.373 0 q0.5078125 0 0.869140625 0.3564453125 t0.36133 0.87402 q0 0.5078125 -0.361328125 0.8642578125 t-0.86914 0.35645 z M104.95118125 8.447 l-7.373 0 q-0.5078125 0 -0.869140625 -0.3564453125 t-0.36133 -0.86426 t0.36133 -0.86914 t0.86914 -0.36133 l7.373 0 q0.5078125 0 0.869140625 0.361328125 t0.36133 0.86914 t-0.36133 0.86426 t-0.86914 0.35645 z M104.95118125 14.2285 l-7.373 0 q-0.5078125 0 -0.869140625 -0.361328125 t-0.36133 -0.86914 t0.36133 -0.86914 t0.86914 -0.36133 l7.373 0 q0.5078125 0 0.869140625 0.361328125 t0.36133 0.86914 t-0.36133 0.86914 t-0.86914 0.36133 z M114.599646875 20 q1.40625 0 2.592773438 -0.5908203125 t2.0264 -1.7041 q1.46484375 -2.041015625 1.46484375 -4.70703125 t-1.4648 -4.707 q-0.83984375 -1.11328125 -2.026367188 -1.704101563 t-2.5928 -0.59082 l-5.1367 0 q-0.5078125 0 -0.869140625 0.361328125 t-0.36133 0.86914 l0 3.5059 q0 0.5078125 0.361328125 0.869140625 t0.86914 0.36133 t0.86914 -0.36133 t0.36133 -0.86914 l0 -2.2852 l3.9063 0 q1.7578125 0 2.744140625 1.455078125 q0.87890625 1.298828125 0.87890625 3.095703125 q0 1.845703125 -0.966796875 3.232421875 q-0.986328125 1.318359375 -2.65625 1.318359375 l-5.1367 0 q-0.5078125 0 -0.869140625 0.3564453125 t-0.36133 0.87402 q0 0.5078125 0.361328125 0.8642578125 t0.86914 0.35645 l5.1367 0 z M130.30275625 14.0527 q0.5078125 0 0.869140625 -0.3564453125 t0.36133 -0.86426 q0 -0.517578125 -0.361328125 -0.8740234375 t-0.86914 -0.35645 l-6.2402 0 q-0.5078125 0 -0.869140625 0.3564453125 t-0.36133 0.87402 q0 0.5078125 0.361328125 0.8642578125 t0.86914 0.35645 l6.2402 0 z M135.107378125 20 q0.5078125 0 0.869140625 -0.3564453125 t0.36133 -0.86426 l0 -11.553 q0 -0.5078125 -0.361328125 -0.869140625 t-0.86914 -0.36133 t-0.86914 0.36133 t-0.36133 0.86914 l0 11.553 q0 0.5078125 0.361328125 0.8642578125 t0.86914 0.35645 z M143.242165625 20 q-0.5078125 0 -0.869140625 -0.3564453125 t-0.36133 -0.86426 l0 -11.553 q0 -0.5078125 0.361328125 -0.869140625 t0.86914 -0.36133 l4.0137 0 q0.5078125 0 0.869140625 0.361328125 t0.36133 0.86914 t-0.36133 0.86426 t-0.86914 0.35645 l-2.7832 0 l0 10.332 q0 0.5078125 -0.361328125 0.8642578125 t-0.86914 0.35645 z M139.228565625 8.447 q-0.5078125 0 -0.869140625 -0.3564453125 t-0.36133 -0.86426 t0.36133 -0.86914 t0.86914 -0.36133 t0.86914 0.36133 t0.36133 0.86914 t-0.36133 0.86426 t-0.86914 0.35645 z M155.019509375 20 q0.5078125 0 0.869140625 -0.3564453125 t0.36133 -0.86426 q0 -1.38671875 0.21484375 -2.124023438 t0.56641 -1.1182 t0.79102 -0.67383 t0.92285 -0.7666 t0.8252 -1.2793 t0.3418 -2.1436 q0 -2.12890625 -1.58203125 -3.525390625 q-1.435546875 -1.15234375 -3.30078125 -1.15234375 t-3.3008 1.1523 q-1.58203125 1.396484375 -1.58203125 3.525390625 q0 0.5078125 0.361328125 0.869140625 t0.86914 0.36133 t0.86914 -0.36133 t0.36133 -0.86914 q0 -0.8203125 0.37109375 -1.30859375 t0.93262 -0.70313 t1.1182 -0.21484 t1.1182 0.21484 t0.93262 0.70313 t0.37109 1.3086 q0 1.064453125 -0.2734375 1.46484375 t-0.81055 0.75195 q-0.419921875 0.283203125 -0.888671875 0.7080078125 t-0.86914 1.1279 q-0.810546875 1.416015625 -0.810546875 4.052734375 q0 0.5078125 0.3564453125 0.8642578125 t0.86426 0.35645 z"></path></g>
			</g>
		</svg>
	